<?xml version="1.0" encoding="UTF-8"?>
<svg width="800px" height="800px" version="1.1" viewBox="0 0 24 24" xmlns="http://www.w3.org/2000/svg">
<title>toggle_right_fill</title>
<g fill="none" fill-rule="evenodd">
<g transform="translate(-768 -336)">
<g transform="translate(768 336)">
<path d="m24 0v24h-24v-24h24zm-11.407 23.258-0.01155 0.0016721-0.071062 0.035531-0.018999 0.003703-0.015164-0.003703-0.07106-0.035531c-0.0098319-0.0031469-0.018606-4.896e-4 -0.023513 0.0053943l-0.0041098 0.010924-0.017091 0.42728 0.0049537 0.02039 0.01101 0.012214 0.10357 0.073979 0.014871 0.0039203 0.011766-0.0039203 0.10358-0.073979 0.012604-0.016041 0.0033589-0.016564-0.017092-0.42728c-0.0019886-0.01013-0.0085498-0.016532-0.016071-0.01799zm0.2649-0.11255-0.013842 0.002021-0.1847 0.092352-0.0099621 0.010246-0.0026879 0.011206 0.0179 0.42953 0.0048406 0.012779 0.0084511 0.0070753 0.20095 0.092746c0.012088 0.003661 0.022893-2.514e-4 0.028488-0.0080125l0.0039949-0.014062-0.034146-0.61463c-0.0023895-0.011943-0.010268-0.019532-0.019287-0.021247zm-0.71534 0.002021c-0.0098295-0.0049147-0.020871-0.0020466-0.027411 0.0052882l-0.0057192 0.013938-0.034146 0.61463c-6.391e-4 0.0115 0.0070385 0.020696 0.016877 0.023404l0.015608-0.0013287 0.20095-0.092746 0.0094391-0.0080584 0.0038546-0.011796 0.017897-0.42953-0.003156-0.012594-0.0094919-0.0088579-0.18471-0.092352z" fill-rule="nonzero"></path>
<path d="m7 6c-3.3137 0-6 2.6863-6 6 0 3.3137 2.6863 6 6 6h10c3.3137 0 6-2.6863 6-6 0-3.3137-2.6863-6-6-6h-10zm10 10c2.2091 0 4-1.7909 4-4 0-2.2091-1.7909-4-4-4s-4 1.7909-4 4c0 2.2091 1.7909 4 4 4z" fill="#09244B"></path>
</g>
</g>
</g>
</svg>
